<svg xmlns="http://www.w3.org/2000/svg" xmlns:xlink="http://www.w3.org/1999/xlink" width="880" height="380" viewBox="0 0 880 380" role="img" aria-label="Skill monitor: HTML 96, CSS 94, JavaScript 92, Sass 85, React 82, Node 78, Vue 74, PHP 70, Laravel 66, Figma 88">
<title>Skill monitor: HTML 96, CSS 94, JavaScript 92, Sass 85, React 82, Node 78, Vue 74, PHP 70, Laravel 66, Figma 88</title><style>
text{font-family:'Cascadia Code','JetBrains Mono','Fira Code',ui-monospace,'SF Mono',Menlo,Consolas,monospace}
@keyframes skfadeIn{to{opacity:1}}
.skfi{opacity:0;animation:skfadeIn .06s linear both}
@keyframes skblink{0%,55%{opacity:1}56%,100%{opacity:0}}
.skblink{animation:skblink 1.1s steps(1,end) infinite}
@keyframes skcover{to{transform:translateX(var(--w))}}
@keyframes skvanish{to{opacity:0}}

.skblip{animation:skblip 2s linear infinite}
@keyframes skblip{0%{opacity:1}70%,100%{opacity:0}}
.sksp{opacity:0;animation:skspin6 .9s steps(1,end) infinite}
@keyframes skspin6{0%{opacity:1}16.6%,100%{opacity:0}}
.skhand{transform-origin:800px 322px;animation:skhandSpin 3s linear infinite}
@keyframes skhandSpin{to{transform:rotate(360deg)}}
</style><defs><pattern id="skscanP" width="1" height="4" patternUnits="userSpaceOnUse"><rect width="1" height="1.4" fill="#000" opacity="0.5"/></pattern></defs><rect x="1" y="1" width="878" height="378" rx="14" fill="#060d07" stroke="#16351c" stroke-width="1.5"/><text x="40" y="44" font-size="13.5"><tspan fill="#1d7a33">danil@github:~$ </tspan><tspan fill="#b6ffcb">htop --skills</tspan></text>
<rect x="37" y="27.5" width="249" height="22" fill="#060d07" style="--w:249px;animation:skcover 0.97s steps(29,end) 0.3s both,skvanish .01s linear 1.27s both"/><text x="291" y="44" font-size="13.5" fill="#39ff6a" opacity="0" style="animation:skblink 1.1s steps(1,end) 1.27s infinite">▊</text><text x="840" y="44" font-size="12" fill="#1d7a33" text-anchor="end" opacity=".9"># levels self-reported · bugs are real</text><line x1="40" y1="62" x2="840" y2="62" stroke="#16351c" stroke-width="1.5"/><text x="40" y="102" font-size="13" fill="#2fd657"><tspan fill="#1d7a33">&gt; </tspan>HTML5</text><rect x="140" y="89" width="10" height="15" fill="#16351c" shape-rendering="crispEdges"/><rect x="152" y="89" width="10" height="15" fill="#16351c" shape-rendering="crispEdges"/><rect x="164" y="89" width="10" height="15" fill="#16351c" shape-rendering="crispEdges"/><rect x="176" y="89" width="10" height="15" fill="#16351c" shape-rendering="crispEdges"/><rect x="188" y="89" width="10" height="15" fill="#16351c" shape-rendering="crispEdges"/><rect x="200" y="89" width="10" height="15" fill="#16351c" shape-rendering="crispEdges"/><rect x="212" y="89" width="10" height="15" fill="#16351c" shape-rendering="crispEdges"/><rect x="224" y="89" width="10" height="15" fill="#16351c" shape-rendering="crispEdges"/><rect x="236" y="89" width="10" height="15" fill="#16351c" shape-rendering="crispEdges"/><rect x="248" y="89" width="10" height="15" fill="#16351c" shape-rendering="crispEdges"/><rect x="260" y="89" width="10" height="15" fill="#16351c" shape-rendering="crispEdges"/><rect x="272" y="89" width="10" height="15" fill="#16351c" shape-rendering="crispEdges"/><rect x="284" y="89" width="10" height="15" fill="#16351c" shape-rendering="crispEdges"/><rect x="296" y="89" width="10" height="15" fill="#16351c" shape-rendering="crispEdges"/><rect x="308" y="89" width="10" height="15" fill="#16351c" shape-rendering="crispEdges"/><rect x="320" y="89" width="10" height="15" fill="#16351c" shape-rendering="crispEdges"/><rect x="332" y="89" width="10" height="15" fill="#16351c" shape-rendering="crispEdges"/><rect x="140" y="89" width="10" height="15" fill="#39ff6a" shape-rendering="crispEdges"/><rect x="152" y="89" width="10" height="15" fill="#39ff6a" shape-rendering="crispEdges"/><rect x="164" y="89" width="10" height="15" fill="#39ff6a" shape-rendering="crispEdges"/><rect x="176" y="89" width="10" height="15" fill="#39ff6a" shape-rendering="crispEdges"/><rect x="188" y="89" width="10" height="15" fill="#39ff6a" shape-rendering="crispEdges"/><rect x="200" y="89" width="10" height="15" fill="#39ff6a" shape-rendering="crispEdges"/><rect x="212" y="89" width="10" height="15" fill="#39ff6a" shape-rendering="crispEdges"/><rect x="224" y="89" width="10" height="15" fill="#39ff6a" shape-rendering="crispEdges"/><rect x="236" y="89" width="10" height="15" fill="#39ff6a" shape-rendering="crispEdges"/><rect x="248" y="89" width="10" height="15" fill="#39ff6a" shape-rendering="crispEdges"/><rect x="260" y="89" width="10" height="15" fill="#39ff6a" shape-rendering="crispEdges"/><rect x="272" y="89" width="10" height="15" fill="#39ff6a" shape-rendering="crispEdges"/><rect x="284" y="89" width="10" height="15" fill="#39ff6a" shape-rendering="crispEdges"/><rect x="296" y="89" width="10" height="15" fill="#39ff6a" shape-rendering="crispEdges"/><rect x="308" y="89" width="10" height="15" fill="#b6ffcb" shape-rendering="crispEdges"/><rect x="320" y="89" width="10" height="15" fill="#b6ffcb" shape-rendering="crispEdges"/><rect x="139" y="87" width="194" height="19" fill="#060d07" style="--w:194px;animation:skcover 0.8s steps(16,end) 0.5s both,skvanish .01s linear 1.3s both"/><text x="354" y="102" font-size="12.5" fill="#b6ffcb" class="skfi" style="animation-delay:1.3s">96%</text><text x="452" y="102" font-size="13" fill="#2fd657"><tspan fill="#1d7a33">&gt; </tspan>CSS3</text><rect x="552" y="89" width="10" height="15" fill="#16351c" shape-rendering="crispEdges"/><rect x="564" y="89" width="10" height="15" fill="#16351c" shape-rendering="crispEdges"/><rect x="576" y="89" width="10" height="15" fill="#16351c" shape-rendering="crispEdges"/><rect x="588" y="89" width="10" height="15" fill="#16351c" shape-rendering="crispEdges"/><rect x="600" y="89" width="10" height="15" fill="#16351c" shape-rendering="crispEdges"/><rect x="612" y="89" width="10" height="15" fill="#16351c" shape-rendering="crispEdges"/><rect x="624" y="89" width="10" height="15" fill="#16351c" shape-rendering="crispEdges"/><rect x="636" y="89" width="10" height="15" fill="#16351c" shape-rendering="crispEdges"/><rect x="648" y="89" width="10" height="15" fill="#16351c" shape-rendering="crispEdges"/><rect x="660" y="89" width="10" height="15" fill="#16351c" shape-rendering="crispEdges"/><rect x="672" y="89" width="10" height="15" fill="#16351c" shape-rendering="crispEdges"/><rect x="684" y="89" width="10" height="15" fill="#16351c" shape-rendering="crispEdges"/><rect x="696" y="89" width="10" height="15" fill="#16351c" shape-rendering="crispEdges"/><rect x="708" y="89" width="10" height="15" fill="#16351c" shape-rendering="crispEdges"/><rect x="720" y="89" width="10" height="15" fill="#16351c" shape-rendering="crispEdges"/><rect x="732" y="89" width="10" height="15" fill="#16351c" shape-rendering="crispEdges"/><rect x="744" y="89" width="10" height="15" fill="#16351c" shape-rendering="crispEdges"/><rect x="552" y="89" width="10" height="15" fill="#39ff6a" shape-rendering="crispEdges"/><rect x="564" y="89" width="10" height="15" fill="#39ff6a" shape-rendering="crispEdges"/><rect x="576" y="89" width="10" height="15" fill="#39ff6a" shape-rendering="crispEdges"/><rect x="588" y="89" width="10" height="15" fill="#39ff6a" shape-rendering="crispEdges"/><rect x="600" y="89" width="10" height="15" fill="#39ff6a" shape-rendering="crispEdges"/><rect x="612" y="89" width="10" height="15" fill="#39ff6a" shape-rendering="crispEdges"/><rect x="624" y="89" width="10" height="15" fill="#39ff6a" shape-rendering="crispEdges"/><rect x="636" y="89" width="10" height="15" fill="#39ff6a" shape-rendering="crispEdges"/><rect x="648" y="89" width="10" height="15" fill="#39ff6a" shape-rendering="crispEdges"/><rect x="660" y="89" width="10" height="15" fill="#39ff6a" shape-rendering="crispEdges"/><rect x="672" y="89" width="10" height="15" fill="#39ff6a" shape-rendering="crispEdges"/><rect x="684" y="89" width="10" height="15" fill="#39ff6a" shape-rendering="crispEdges"/><rect x="696" y="89" width="10" height="15" fill="#39ff6a" shape-rendering="crispEdges"/><rect x="708" y="89" width="10" height="15" fill="#39ff6a" shape-rendering="crispEdges"/><rect x="720" y="89" width="10" height="15" fill="#b6ffcb" shape-rendering="crispEdges"/><rect x="732" y="89" width="10" height="15" fill="#b6ffcb" shape-rendering="crispEdges"/><rect x="551" y="87" width="194" height="19" fill="#060d07" style="--w:194px;animation:skcover 0.8s steps(16,end) 0.65s both,skvanish .01s linear 1.45s both"/><text x="766" y="102" font-size="12.5" fill="#b6ffcb" class="skfi" style="animation-delay:1.45s">94%</text><text x="40" y="142" font-size="13" fill="#2fd657"><tspan fill="#1d7a33">&gt; </tspan>JAVASCRIPT</text><rect x="140" y="129" width="10" height="15" fill="#16351c" shape-rendering="crispEdges"/><rect x="152" y="129" width="10" height="15" fill="#16351c" shape-rendering="crispEdges"/><rect x="164" y="129" width="10" height="15" fill="#16351c" shape-rendering="crispEdges"/><rect x="176" y="129" width="10" height="15" fill="#16351c" shape-rendering="crispEdges"/><rect x="188" y="129" width="10" height="15" fill="#16351c" shape-rendering="crispEdges"/><rect x="200" y="129" width="10" height="15" fill="#16351c" shape-rendering="crispEdges"/><rect x="212" y="129" width="10" height="15" fill="#16351c" shape-rendering="crispEdges"/><rect x="224" y="129" width="10" height="15" fill="#16351c" shape-rendering="crispEdges"/><rect x="236" y="129" width="10" height="15" fill="#16351c" shape-rendering="crispEdges"/><rect x="248" y="129" width="10" height="15" fill="#16351c" shape-rendering="crispEdges"/><rect x="260" y="129" width="10" height="15" fill="#16351c" shape-rendering="crispEdges"/><rect x="272" y="129" width="10" height="15" fill="#16351c" shape-rendering="crispEdges"/><rect x="284" y="129" width="10" height="15" fill="#16351c" shape-rendering="crispEdges"/><rect x="296" y="129" width="10" height="15" fill="#16351c" shape-rendering="crispEdges"/><rect x="308" y="129" width="10" height="15" fill="#16351c" shape-rendering="crispEdges"/><rect x="320" y="129" width="10" height="15" fill="#16351c" shape-rendering="crispEdges"/><rect x="332" y="129" width="10" height="15" fill="#16351c" shape-rendering="crispEdges"/><rect x="140" y="129" width="10" height="15" fill="#39ff6a" shape-rendering="crispEdges"/><rect x="152" y="129" width="10" height="15" fill="#39ff6a" shape-rendering="crispEdges"/><rect x="164" y="129" width="10" height="15" fill="#39ff6a" shape-rendering="crispEdges"/><rect x="176" y="129" width="10" height="15" fill="#39ff6a" shape-rendering="crispEdges"/><rect x="188" y="129" width="10" height="15" fill="#39ff6a" shape-rendering="crispEdges"/><rect x="200" y="129" width="10" height="15" fill="#39ff6a" shape-rendering="crispEdges"/><rect x="212" y="129" width="10" height="15" fill="#39ff6a" shape-rendering="crispEdges"/><rect x="224" y="129" width="10" height="15" fill="#39ff6a" shape-rendering="crispEdges"/><rect x="236" y="129" width="10" height="15" fill="#39ff6a" shape-rendering="crispEdges"/><rect x="248" y="129" width="10" height="15" fill="#39ff6a" shape-rendering="crispEdges"/><rect x="260" y="129" width="10" height="15" fill="#39ff6a" shape-rendering="crispEdges"/><rect x="272" y="129" width="10" height="15" fill="#39ff6a" shape-rendering="crispEdges"/><rect x="284" y="129" width="10" height="15" fill="#39ff6a" shape-rendering="crispEdges"/><rect x="296" y="129" width="10" height="15" fill="#39ff6a" shape-rendering="crispEdges"/><rect x="308" y="129" width="10" height="15" fill="#b6ffcb" shape-rendering="crispEdges"/><rect x="320" y="129" width="10" height="15" fill="#b6ffcb" shape-rendering="crispEdges"/><rect x="139" y="127" width="194" height="19" fill="#060d07" style="--w:194px;animation:skcover 0.8s steps(16,end) 0.8s both,skvanish .01s linear 1.6s both"/><text x="354" y="142" font-size="12.5" fill="#b6ffcb" class="skfi" style="animation-delay:1.6s">92%</text><text x="452" y="142" font-size="13" fill="#2fd657"><tspan fill="#1d7a33">&gt; </tspan>SASS</text><rect x="552" y="129" width="10" height="15" fill="#16351c" shape-rendering="crispEdges"/><rect x="564" y="129" width="10" height="15" fill="#16351c" shape-rendering="crispEdges"/><rect x="576" y="129" width="10" height="15" fill="#16351c" shape-rendering="crispEdges"/><rect x="588" y="129" width="10" height="15" fill="#16351c" shape-rendering="crispEdges"/><rect x="600" y="129" width="10" height="15" fill="#16351c" shape-rendering="crispEdges"/><rect x="612" y="129" width="10" height="15" fill="#16351c" shape-rendering="crispEdges"/><rect x="624" y="129" width="10" height="15" fill="#16351c" shape-rendering="crispEdges"/><rect x="636" y="129" width="10" height="15" fill="#16351c" shape-rendering="crispEdges"/><rect x="648" y="129" width="10" height="15" fill="#16351c" shape-rendering="crispEdges"/><rect x="660" y="129" width="10" height="15" fill="#16351c" shape-rendering="crispEdges"/><rect x="672" y="129" width="10" height="15" fill="#16351c" shape-rendering="crispEdges"/><rect x="684" y="129" width="10" height="15" fill="#16351c" shape-rendering="crispEdges"/><rect x="696" y="129" width="10" height="15" fill="#16351c" shape-rendering="crispEdges"/><rect x="708" y="129" width="10" height="15" fill="#16351c" shape-rendering="crispEdges"/><rect x="720" y="129" width="10" height="15" fill="#16351c" shape-rendering="crispEdges"/><rect x="732" y="129" width="10" height="15" fill="#16351c" shape-rendering="crispEdges"/><rect x="744" y="129" width="10" height="15" fill="#16351c" shape-rendering="crispEdges"/><rect x="552" y="129" width="10" height="15" fill="#39ff6a" shape-rendering="crispEdges"/><rect x="564" y="129" width="10" height="15" fill="#39ff6a" shape-rendering="crispEdges"/><rect x="576" y="129" width="10" height="15" fill="#39ff6a" shape-rendering="crispEdges"/><rect x="588" y="129" width="10" height="15" fill="#39ff6a" shape-rendering="crispEdges"/><rect x="600" y="129" width="10" height="15" fill="#39ff6a" shape-rendering="crispEdges"/><rect x="612" y="129" width="10" height="15" fill="#39ff6a" shape-rendering="crispEdges"/><rect x="624" y="129" width="10" height="15" fill="#39ff6a" shape-rendering="crispEdges"/><rect x="636" y="129" width="10" height="15" fill="#39ff6a" shape-rendering="crispEdges"/><rect x="648" y="129" width="10" height="15" fill="#39ff6a" shape-rendering="crispEdges"/><rect x="660" y="129" width="10" height="15" fill="#39ff6a" shape-rendering="crispEdges"/><rect x="672" y="129" width="10" height="15" fill="#39ff6a" shape-rendering="crispEdges"/><rect x="684" y="129" width="10" height="15" fill="#39ff6a" shape-rendering="crispEdges"/><rect x="696" y="129" width="10" height="15" fill="#b6ffcb" shape-rendering="crispEdges"/><rect x="708" y="129" width="10" height="15" fill="#b6ffcb" shape-rendering="crispEdges"/><rect x="551" y="127" width="170" height="19" fill="#060d07" style="--w:170px;animation:skcover 0.7s steps(14,end) 0.95s both,skvanish .01s linear 1.65s both"/><text x="766" y="142" font-size="12.5" fill="#b6ffcb" class="skfi" style="animation-delay:1.65s">85%</text><text x="40" y="182" font-size="13" fill="#2fd657"><tspan fill="#1d7a33">&gt; </tspan>REACT</text><rect x="140" y="169" width="10" height="15" fill="#16351c" shape-rendering="crispEdges"/><rect x="152" y="169" width="10" height="15" fill="#16351c" shape-rendering="crispEdges"/><rect x="164" y="169" width="10" height="15" fill="#16351c" shape-rendering="crispEdges"/><rect x="176" y="169" width="10" height="15" fill="#16351c" shape-rendering="crispEdges"/><rect x="188" y="169" width="10" height="15" fill="#16351c" shape-rendering="crispEdges"/><rect x="200" y="169" width="10" height="15" fill="#16351c" shape-rendering="crispEdges"/><rect x="212" y="169" width="10" height="15" fill="#16351c" shape-rendering="crispEdges"/><rect x="224" y="169" width="10" height="15" fill="#16351c" shape-rendering="crispEdges"/><rect x="236" y="169" width="10" height="15" fill="#16351c" shape-rendering="crispEdges"/><rect x="248" y="169" width="10" height="15" fill="#16351c" shape-rendering="crispEdges"/><rect x="260" y="169" width="10" height="15" fill="#16351c" shape-rendering="crispEdges"/><rect x="272" y="169" width="10" height="15" fill="#16351c" shape-rendering="crispEdges"/><rect x="284" y="169" width="10" height="15" fill="#16351c" shape-rendering="crispEdges"/><rect x="296" y="169" width="10" height="15" fill="#16351c" shape-rendering="crispEdges"/><rect x="308" y="169" width="10" height="15" fill="#16351c" shape-rendering="crispEdges"/><rect x="320" y="169" width="10" height="15" fill="#16351c" shape-rendering="crispEdges"/><rect x="332" y="169" width="10" height="15" fill="#16351c" shape-rendering="crispEdges"/><rect x="140" y="169" width="10" height="15" fill="#39ff6a" shape-rendering="crispEdges"/><rect x="152" y="169" width="10" height="15" fill="#39ff6a" shape-rendering="crispEdges"/><rect x="164" y="169" width="10" height="15" fill="#39ff6a" shape-rendering="crispEdges"/><rect x="176" y="169" width="10" height="15" fill="#39ff6a" shape-rendering="crispEdges"/><rect x="188" y="169" width="10" height="15" fill="#39ff6a" shape-rendering="crispEdges"/><rect x="200" y="169" width="10" height="15" fill="#39ff6a" shape-rendering="crispEdges"/><rect x="212" y="169" width="10" height="15" fill="#39ff6a" shape-rendering="crispEdges"/><rect x="224" y="169" width="10" height="15" fill="#39ff6a" shape-rendering="crispEdges"/><rect x="236" y="169" width="10" height="15" fill="#39ff6a" shape-rendering="crispEdges"/><rect x="248" y="169" width="10" height="15" fill="#39ff6a" shape-rendering="crispEdges"/><rect x="260" y="169" width="10" height="15" fill="#39ff6a" shape-rendering="crispEdges"/><rect x="272" y="169" width="10" height="15" fill="#39ff6a" shape-rendering="crispEdges"/><rect x="284" y="169" width="10" height="15" fill="#b6ffcb" shape-rendering="crispEdges"/><rect x="296" y="169" width="10" height="15" fill="#b6ffcb" shape-rendering="crispEdges"/><rect x="139" y="167" width="170" height="19" fill="#060d07" style="--w:170px;animation:skcover 0.7s steps(14,end) 1.1s both,skvanish .01s linear 1.8s both"/><text x="354" y="182" font-size="12.5" fill="#b6ffcb" class="skfi" style="animation-delay:1.8s">82%</text><text x="452" y="182" font-size="13" fill="#2fd657"><tspan fill="#1d7a33">&gt; </tspan>NODE.JS</text><rect x="552" y="169" width="10" height="15" fill="#16351c" shape-rendering="crispEdges"/><rect x="564" y="169" width="10" height="15" fill="#16351c" shape-rendering="crispEdges"/><rect x="576" y="169" width="10" height="15" fill="#16351c" shape-rendering="crispEdges"/><rect x="588" y="169" width="10" height="15" fill="#16351c" shape-rendering="crispEdges"/><rect x="600" y="169" width="10" height="15" fill="#16351c" shape-rendering="crispEdges"/><rect x="612" y="169" width="10" height="15" fill="#16351c" shape-rendering="crispEdges"/><rect x="624" y="169" width="10" height="15" fill="#16351c" shape-rendering="crispEdges"/><rect x="636" y="169" width="10" height="15" fill="#16351c" shape-rendering="crispEdges"/><rect x="648" y="169" width="10" height="15" fill="#16351c" shape-rendering="crispEdges"/><rect x="660" y="169" width="10" height="15" fill="#16351c" shape-rendering="crispEdges"/><rect x="672" y="169" width="10" height="15" fill="#16351c" shape-rendering="crispEdges"/><rect x="684" y="169" width="10" height="15" fill="#16351c" shape-rendering="crispEdges"/><rect x="696" y="169" width="10" height="15" fill="#16351c" shape-rendering="crispEdges"/><rect x="708" y="169" width="10" height="15" fill="#16351c" shape-rendering="crispEdges"/><rect x="720" y="169" width="10" height="15" fill="#16351c" shape-rendering="crispEdges"/><rect x="732" y="169" width="10" height="15" fill="#16351c" shape-rendering="crispEdges"/><rect x="744" y="169" width="10" height="15" fill="#16351c" shape-rendering="crispEdges"/><rect x="552" y="169" width="10" height="15" fill="#39ff6a" shape-rendering="crispEdges"/><rect x="564" y="169" width="10" height="15" fill="#39ff6a" shape-rendering="crispEdges"/><rect x="576" y="169" width="10" height="15" fill="#39ff6a" shape-rendering="crispEdges"/><rect x="588" y="169" width="10" height="15" fill="#39ff6a" shape-rendering="crispEdges"/><rect x="600" y="169" width="10" height="15" fill="#39ff6a" shape-rendering="crispEdges"/><rect x="612" y="169" width="10" height="15" fill="#39ff6a" shape-rendering="crispEdges"/><rect x="624" y="169" width="10" height="15" fill="#39ff6a" shape-rendering="crispEdges"/><rect x="636" y="169" width="10" height="15" fill="#39ff6a" shape-rendering="crispEdges"/><rect x="648" y="169" width="10" height="15" fill="#39ff6a" shape-rendering="crispEdges"/><rect x="660" y="169" width="10" height="15" fill="#39ff6a" shape-rendering="crispEdges"/><rect x="672" y="169" width="10" height="15" fill="#39ff6a" shape-rendering="crispEdges"/><rect x="684" y="169" width="10" height="15" fill="#b6ffcb" shape-rendering="crispEdges"/><rect x="696" y="169" width="10" height="15" fill="#b6ffcb" shape-rendering="crispEdges"/><rect x="551" y="167" width="158" height="19" fill="#060d07" style="--w:158px;animation:skcover 0.65s steps(13,end) 1.25s both,skvanish .01s linear 1.9s both"/><text x="766" y="182" font-size="12.5" fill="#b6ffcb" class="skfi" style="animation-delay:1.9s">78%</text><text x="40" y="222" font-size="13" fill="#2fd657"><tspan fill="#1d7a33">&gt; </tspan>VUE.JS</text><rect x="140" y="209" width="10" height="15" fill="#16351c" shape-rendering="crispEdges"/><rect x="152" y="209" width="10" height="15" fill="#16351c" shape-rendering="crispEdges"/><rect x="164" y="209" width="10" height="15" fill="#16351c" shape-rendering="crispEdges"/><rect x="176" y="209" width="10" height="15" fill="#16351c" shape-rendering="crispEdges"/><rect x="188" y="209" width="10" height="15" fill="#16351c" shape-rendering="crispEdges"/><rect x="200" y="209" width="10" height="15" fill="#16351c" shape-rendering="crispEdges"/><rect x="212" y="209" width="10" height="15" fill="#16351c" shape-rendering="crispEdges"/><rect x="224" y="209" width="10" height="15" fill="#16351c" shape-rendering="crispEdges"/><rect x="236" y="209" width="10" height="15" fill="#16351c" shape-rendering="crispEdges"/><rect x="248" y="209" width="10" height="15" fill="#16351c" shape-rendering="crispEdges"/><rect x="260" y="209" width="10" height="15" fill="#16351c" shape-rendering="crispEdges"/><rect x="272" y="209" width="10" height="15" fill="#16351c" shape-rendering="crispEdges"/><rect x="284" y="209" width="10" height="15" fill="#16351c" shape-rendering="crispEdges"/><rect x="296" y="209" width="10" height="15" fill="#16351c" shape-rendering="crispEdges"/><rect x="308" y="209" width="10" height="15" fill="#16351c" shape-rendering="crispEdges"/><rect x="320" y="209" width="10" height="15" fill="#16351c" shape-rendering="crispEdges"/><rect x="332" y="209" width="10" height="15" fill="#16351c" shape-rendering="crispEdges"/><rect x="140" y="209" width="10" height="15" fill="#39ff6a" shape-rendering="crispEdges"/><rect x="152" y="209" width="10" height="15" fill="#39ff6a" shape-rendering="crispEdges"/><rect x="164" y="209" width="10" height="15" fill="#39ff6a" shape-rendering="crispEdges"/><rect x="176" y="209" width="10" height="15" fill="#39ff6a" shape-rendering="crispEdges"/><rect x="188" y="209" width="10" height="15" fill="#39ff6a" shape-rendering="crispEdges"/><rect x="200" y="209" width="10" height="15" fill="#39ff6a" shape-rendering="crispEdges"/><rect x="212" y="209" width="10" height="15" fill="#39ff6a" shape-rendering="crispEdges"/><rect x="224" y="209" width="10" height="15" fill="#39ff6a" shape-rendering="crispEdges"/><rect x="236" y="209" width="10" height="15" fill="#39ff6a" shape-rendering="crispEdges"/><rect x="248" y="209" width="10" height="15" fill="#39ff6a" shape-rendering="crispEdges"/><rect x="260" y="209" width="10" height="15" fill="#39ff6a" shape-rendering="crispEdges"/><rect x="272" y="209" width="10" height="15" fill="#b6ffcb" shape-rendering="crispEdges"/><rect x="284" y="209" width="10" height="15" fill="#b6ffcb" shape-rendering="crispEdges"/><rect x="139" y="207" width="158" height="19" fill="#060d07" style="--w:158px;animation:skcover 0.65s steps(13,end) 1.4s both,skvanish .01s linear 2.05s both"/><text x="354" y="222" font-size="12.5" fill="#b6ffcb" class="skfi" style="animation-delay:2.05s">74%</text><text x="452" y="222" font-size="13" fill="#2fd657"><tspan fill="#1d7a33">&gt; </tspan>PHP</text><rect x="552" y="209" width="10" height="15" fill="#16351c" shape-rendering="crispEdges"/><rect x="564" y="209" width="10" height="15" fill="#16351c" shape-rendering="crispEdges"/><rect x="576" y="209" width="10" height="15" fill="#16351c" shape-rendering="crispEdges"/><rect x="588" y="209" width="10" height="15" fill="#16351c" shape-rendering="crispEdges"/><rect x="600" y="209" width="10" height="15" fill="#16351c" shape-rendering="crispEdges"/><rect x="612" y="209" width="10" height="15" fill="#16351c" shape-rendering="crispEdges"/><rect x="624" y="209" width="10" height="15" fill="#16351c" shape-rendering="crispEdges"/><rect x="636" y="209" width="10" height="15" fill="#16351c" shape-rendering="crispEdges"/><rect x="648" y="209" width="10" height="15" fill="#16351c" shape-rendering="crispEdges"/><rect x="660" y="209" width="10" height="15" fill="#16351c" shape-rendering="crispEdges"/><rect x="672" y="209" width="10" height="15" fill="#16351c" shape-rendering="crispEdges"/><rect x="684" y="209" width="10" height="15" fill="#16351c" shape-rendering="crispEdges"/><rect x="696" y="209" width="10" height="15" fill="#16351c" shape-rendering="crispEdges"/><rect x="708" y="209" width="10" height="15" fill="#16351c" shape-rendering="crispEdges"/><rect x="720" y="209" width="10" height="15" fill="#16351c" shape-rendering="crispEdges"/><rect x="732" y="209" width="10" height="15" fill="#16351c" shape-rendering="crispEdges"/><rect x="744" y="209" width="10" height="15" fill="#16351c" shape-rendering="crispEdges"/><rect x="552" y="209" width="10" height="15" fill="#39ff6a" shape-rendering="crispEdges"/><rect x="564" y="209" width="10" height="15" fill="#39ff6a" shape-rendering="crispEdges"/><rect x="576" y="209" width="10" height="15" fill="#39ff6a" shape-rendering="crispEdges"/><rect x="588" y="209" width="10" height="15" fill="#39ff6a" shape-rendering="crispEdges"/><rect x="600" y="209" width="10" height="15" fill="#39ff6a" shape-rendering="crispEdges"/><rect x="612" y="209" width="10" height="15" fill="#39ff6a" shape-rendering="crispEdges"/><rect x="624" y="209" width="10" height="15" fill="#39ff6a" shape-rendering="crispEdges"/><rect x="636" y="209" width="10" height="15" fill="#39ff6a" shape-rendering="crispEdges"/><rect x="648" y="209" width="10" height="15" fill="#39ff6a" shape-rendering="crispEdges"/><rect x="660" y="209" width="10" height="15" fill="#39ff6a" shape-rendering="crispEdges"/><rect x="672" y="209" width="10" height="15" fill="#b6ffcb" shape-rendering="crispEdges"/><rect x="684" y="209" width="10" height="15" fill="#b6ffcb" shape-rendering="crispEdges"/><rect x="551" y="207" width="146" height="19" fill="#060d07" style="--w:146px;animation:skcover 0.6s steps(12,end) 1.55s both,skvanish .01s linear 2.15s both"/><text x="766" y="222" font-size="12.5" fill="#b6ffcb" class="skfi" style="animation-delay:2.15s">70%</text><text x="40" y="262" font-size="13" fill="#2fd657"><tspan fill="#1d7a33">&gt; </tspan>LARAVEL</text><rect x="140" y="249" width="10" height="15" fill="#16351c" shape-rendering="crispEdges"/><rect x="152" y="249" width="10" height="15" fill="#16351c" shape-rendering="crispEdges"/><rect x="164" y="249" width="10" height="15" fill="#16351c" shape-rendering="crispEdges"/><rect x="176" y="249" width="10" height="15" fill="#16351c" shape-rendering="crispEdges"/><rect x="188" y="249" width="10" height="15" fill="#16351c" shape-rendering="crispEdges"/><rect x="200" y="249" width="10" height="15" fill="#16351c" shape-rendering="crispEdges"/><rect x="212" y="249" width="10" height="15" fill="#16351c" shape-rendering="crispEdges"/><rect x="224" y="249" width="10" height="15" fill="#16351c" shape-rendering="crispEdges"/><rect x="236" y="249" width="10" height="15" fill="#16351c" shape-rendering="crispEdges"/><rect x="248" y="249" width="10" height="15" fill="#16351c" shape-rendering="crispEdges"/><rect x="260" y="249" width="10" height="15" fill="#16351c" shape-rendering="crispEdges"/><rect x="272" y="249" width="10" height="15" fill="#16351c" shape-rendering="crispEdges"/><rect x="284" y="249" width="10" height="15" fill="#16351c" shape-rendering="crispEdges"/><rect x="296" y="249" width="10" height="15" fill="#16351c" shape-rendering="crispEdges"/><rect x="308" y="249" width="10" height="15" fill="#16351c" shape-rendering="crispEdges"/><rect x="320" y="249" width="10" height="15" fill="#16351c" shape-rendering="crispEdges"/><rect x="332" y="249" width="10" height="15" fill="#16351c" shape-rendering="crispEdges"/><rect x="140" y="249" width="10" height="15" fill="#39ff6a" shape-rendering="crispEdges"/><rect x="152" y="249" width="10" height="15" fill="#39ff6a" shape-rendering="crispEdges"/><rect x="164" y="249" width="10" height="15" fill="#39ff6a" shape-rendering="crispEdges"/><rect x="176" y="249" width="10" height="15" fill="#39ff6a" shape-rendering="crispEdges"/><rect x="188" y="249" width="10" height="15" fill="#39ff6a" shape-rendering="crispEdges"/><rect x="200" y="249" width="10" height="15" fill="#39ff6a" shape-rendering="crispEdges"/><rect x="212" y="249" width="10" height="15" fill="#39ff6a" shape-rendering="crispEdges"/><rect x="224" y="249" width="10" height="15" fill="#39ff6a" shape-rendering="crispEdges"/><rect x="236" y="249" width="10" height="15" fill="#39ff6a" shape-rendering="crispEdges"/><rect x="248" y="249" width="10" height="15" fill="#b6ffcb" shape-rendering="crispEdges"/><rect x="260" y="249" width="10" height="15" fill="#b6ffcb" shape-rendering="crispEdges"/><rect x="139" y="247" width="134" height="19" fill="#060d07" style="--w:134px;animation:skcover 0.55s steps(11,end) 1.7s both,skvanish .01s linear 2.25s both"/><text x="354" y="262" font-size="12.5" fill="#b6ffcb" class="skfi" style="animation-delay:2.25s">66%</text><text x="452" y="262" font-size="13" fill="#2fd657"><tspan fill="#1d7a33">&gt; </tspan>FIGMA</text><rect x="552" y="249" width="10" height="15" fill="#16351c" shape-rendering="crispEdges"/><rect x="564" y="249" width="10" height="15" fill="#16351c" shape-rendering="crispEdges"/><rect x="576" y="249" width="10" height="15" fill="#16351c" shape-rendering="crispEdges"/><rect x="588" y="249" width="10" height="15" fill="#16351c" shape-rendering="crispEdges"/><rect x="600" y="249" width="10" height="15" fill="#16351c" shape-rendering="crispEdges"/><rect x="612" y="249" width="10" height="15" fill="#16351c" shape-rendering="crispEdges"/><rect x="624" y="249" width="10" height="15" fill="#16351c" shape-rendering="crispEdges"/><rect x="636" y="249" width="10" height="15" fill="#16351c" shape-rendering="crispEdges"/><rect x="648" y="249" width="10" height="15" fill="#16351c" shape-rendering="crispEdges"/><rect x="660" y="249" width="10" height="15" fill="#16351c" shape-rendering="crispEdges"/><rect x="672" y="249" width="10" height="15" fill="#16351c" shape-rendering="crispEdges"/><rect x="684" y="249" width="10" height="15" fill="#16351c" shape-rendering="crispEdges"/><rect x="696" y="249" width="10" height="15" fill="#16351c" shape-rendering="crispEdges"/><rect x="708" y="249" width="10" height="15" fill="#16351c" shape-rendering="crispEdges"/><rect x="720" y="249" width="10" height="15" fill="#16351c" shape-rendering="crispEdges"/><rect x="732" y="249" width="10" height="15" fill="#16351c" shape-rendering="crispEdges"/><rect x="744" y="249" width="10" height="15" fill="#16351c" shape-rendering="crispEdges"/><rect x="552" y="249" width="10" height="15" fill="#39ff6a" shape-rendering="crispEdges"/><rect x="564" y="249" width="10" height="15" fill="#39ff6a" shape-rendering="crispEdges"/><rect x="576" y="249" width="10" height="15" fill="#39ff6a" shape-rendering="crispEdges"/><rect x="588" y="249" width="10" height="15" fill="#39ff6a" shape-rendering="crispEdges"/><rect x="600" y="249" width="10" height="15" fill="#39ff6a" shape-rendering="crispEdges"/><rect x="612" y="249" width="10" height="15" fill="#39ff6a" shape-rendering="crispEdges"/><rect x="624" y="249" width="10" height="15" fill="#39ff6a" shape-rendering="crispEdges"/><rect x="636" y="249" width="10" height="15" fill="#39ff6a" shape-rendering="crispEdges"/><rect x="648" y="249" width="10" height="15" fill="#39ff6a" shape-rendering="crispEdges"/><rect x="660" y="249" width="10" height="15" fill="#39ff6a" shape-rendering="crispEdges"/><rect x="672" y="249" width="10" height="15" fill="#39ff6a" shape-rendering="crispEdges"/><rect x="684" y="249" width="10" height="15" fill="#39ff6a" shape-rendering="crispEdges"/><rect x="696" y="249" width="10" height="15" fill="#39ff6a" shape-rendering="crispEdges"/><rect x="708" y="249" width="10" height="15" fill="#b6ffcb" shape-rendering="crispEdges"/><rect x="720" y="249" width="10" height="15" fill="#b6ffcb" shape-rendering="crispEdges"/><rect x="551" y="247" width="182" height="19" fill="#060d07" style="--w:182px;animation:skcover 0.75s steps(15,end) 1.85s both,skvanish .01s linear 2.6s both"/><text x="766" y="262" font-size="12.5" fill="#b6ffcb" class="skfi" style="animation-delay:2.6s">88%</text><line x1="40" y1="292" x2="840" y2="292" stroke="#16351c" stroke-width="1.5"/><text x="40" y="322" font-size="12.5" fill="#2fd657">PROC: brain.exe <tspan fill="#b6ffcb">99.9% CPU</tspan></text><text x="242" y="322" font-size="12.5" fill="#39ff6a" class="sksp" style="animation-delay:0.00s">⠋</text><text x="242" y="322" font-size="12.5" fill="#39ff6a" class="sksp" style="animation-delay:0.15s">⠙</text><text x="242" y="322" font-size="12.5" fill="#39ff6a" class="sksp" style="animation-delay:0.30s">⠸</text><text x="242" y="322" font-size="12.5" fill="#39ff6a" class="sksp" style="animation-delay:0.45s">⠴</text><text x="242" y="322" font-size="12.5" fill="#39ff6a" class="sksp" style="animation-delay:0.60s">⠦</text><text x="242" y="322" font-size="12.5" fill="#39ff6a" class="sksp" style="animation-delay:0.75s">⠇</text><text x="40" y="346" font-size="12" fill="#1d7a33">MEM: 640K RAM (ought to be enough for anyone)</text><g><circle cx="800" cy="322" r="26" fill="none" stroke="#1d7a33" stroke-width="1.2"/><circle cx="800" cy="322" r="16" fill="none" stroke="#16351c" stroke-width="1"/><line x1="774" y1="322" x2="826" y2="322" stroke="#16351c" stroke-width="1"/><line x1="800" y1="296" x2="800" y2="348" stroke="#16351c" stroke-width="1"/>
<g class="skhand"><line x1="800" y1="322" x2="800" y2="297" stroke="#39ff6a" stroke-width="1.6"/></g>
<circle cx="812" cy="312" r="2.5" fill="#39ff6a" class="skblip"/><circle cx="789" cy="330" r="2.5" fill="#39ff6a" class="skblip" style="animation-delay:.7s"/><circle cx="806" cy="336" r="2.5" fill="#ffb347" class="skblip" style="animation-delay:1.3s"/></g><text x="800" y="366" font-size="9.5" fill="#1d7a33" text-anchor="middle" letter-spacing="1">SCANNING FOR BUGS</text><text x="700" y="322" font-size="12" fill="#2fd657" opacity=".75" text-anchor="end">UPTIME: ∞</text><rect x="1" y="1" width="878" height="378" rx="14" fill="url(#skscanP)" opacity=".16"/></svg>